<?xml version="1.0" encoding="utf-8"?>
<!-- Generator: Adobe Illustrator 16.0.0, SVG Export Plug-In . SVG Version: 6.00 Build 0)  -->
<!DOCTYPE svg PUBLIC "-//W3C//DTD SVG 1.1//EN" "http://www.w3.org/Graphics/SVG/1.1/DTD/svg11.dtd">
<svg version="1.1" id="Layer_1" xmlns="http://www.w3.org/2000/svg" xmlns:xlink="http://www.w3.org/1999/xlink" x="0px" y="0px"
	 width="82.908px" height="145.945px" viewBox="0 0 82.908 145.945" enable-background="new 0 0 82.908 145.945"
	 xml:space="preserve">
<polygon fill="#FFFFFF" points="19.938,33.712 36.995,49.097 76.852,2.735 36.995,40.523 "/>
<g>
	<g>
		<polygon fill="#FFFFFF" points="37.131,49.968 19.897,58.609 4.217,66.472 11.223,81.213 27.006,72.876 29.303,71.664 
			68.323,51.056 76.946,30 		"/>
		<polygon fill="#FFFFFF" points="21.92,103.715 26.536,113.428 42.905,104.781 47.26,102.48 51.928,91.084 38.827,96.6 		"/>
		<polygon fill="#FFFFFF" points="28.008,75.254 11.661,82.133 16.299,91.893 23.35,88.168 32.278,83.455 61.338,68.105 
			64.745,59.795 28.159,75.189 		"/>
		<polygon fill="#FFFFFF" points="26.838,114.061 33.95,128.285 35.907,128.285 44.778,108.545 45.784,106.092 43.942,106.865 		"/>
		<polygon fill="#FFFFFF" points="21.756,103.371 53.834,86.432 58.522,74.992 16.643,92.615 		"/>
	</g>
</g>
</svg>
