<?xml version="1.0" encoding="utf-8"?>
<!-- Generator: Adobe Illustrator 16.0.0, SVG Export Plug-In . SVG Version: 6.00 Build 0)  -->
<!DOCTYPE svg PUBLIC "-//W3C//DTD SVG 1.1//EN" "http://www.w3.org/Graphics/SVG/1.1/DTD/svg11.dtd" [
	<!ENTITY ns_flows "http://ns.adobe.com/Flows/1.0/">
	<!ENTITY ns_extend "http://ns.adobe.com/Extensibility/1.0/">
	<!ENTITY ns_ai "http://ns.adobe.com/AdobeIllustrator/10.0/">
	<!ENTITY ns_graphs "http://ns.adobe.com/Graphs/1.0/">
]>
<svg version="1.1" id="Layer_1" xmlns:x="&ns_extend;" xmlns:i="&ns_ai;" xmlns:graph="&ns_graphs;"
	 xmlns="http://www.w3.org/2000/svg" xmlns:xlink="http://www.w3.org/1999/xlink" xmlns:a="http://ns.adobe.com/AdobeSVGViewerExtensions/3.0/"
	 x="0px" y="0px" width="471.352px" height="219.46px" viewBox="0 0 471.352 219.46" enable-background="new 0 0 471.352 219.46"
	 xml:space="preserve">
<g>
	<g>
		<path fill="#1C4461" d="M99.436,113.006h15.348l24.953,38.78l40.3-47.568v90.802h-14.407v-49.58l-25.893,29.426h-0.471
			l-25.654-38.427v58.581H99.436V113.006z"/>
		<path fill="#1C4461" d="M182.789,164.324v-0.237c0-17.688,12.535-32.218,30.225-32.218c19.683,0,29.641,15.465,29.641,33.272
			c0,1.289-0.116,2.578-0.236,3.984h-45.453c1.521,10.072,8.669,15.699,17.806,15.699c6.914,0,11.835-2.578,16.754-7.386
			l8.317,7.386c-5.858,7.025-13.94,11.598-25.305,11.598C196.613,196.423,182.789,183.421,182.789,164.324z M228.598,159.752
			c-0.938-9.138-6.33-16.283-15.701-16.283c-8.669,0-14.761,6.677-16.051,16.283H228.598z"/>
		<path fill="#1C4461" d="M245.232,133.158h14.176v13.943c3.864-9.257,11.011-15.584,21.908-15.114v14.994h-0.817
			c-12.421,0-21.091,8.085-21.091,24.488v23.55h-14.176V133.158z"/>
		<path fill="#1C4461" d="M283.742,110.193h15.23v13.476h-15.23V110.193z M284.328,133.158h14.179v61.861h-14.179V133.158z"/>
		<path fill="#1C4461" d="M309.836,177.914v-32.572h-7.851v-12.184h7.851l14.175-16.988v16.988h16.638v12.184h-16.638v30.346
			c0,5.504,2.813,7.733,7.618,7.733c3.161,0,5.974-0.705,8.782-2.11v11.597c-3.513,1.993-7.379,3.164-12.768,3.164
			C317.216,196.071,309.836,191.502,309.836,177.914z"/>
		<path fill="#1C4461" d="M338.188,164.439v-0.235c0-17.688,14.061-32.335,33.038-32.335c18.98,0,32.919,14.411,32.919,32.103v0.232
			c0,17.574-14.057,32.219-33.155,32.219C352.129,196.423,338.188,182.015,338.188,164.439z M389.971,164.439v-0.235
			c0-10.896-7.85-19.917-18.98-19.917c-11.362,0-18.627,8.905-18.627,19.685v0.232c0,10.775,7.852,19.799,18.863,19.799
			C382.707,184.003,389.971,175.102,389.971,164.439z"/>
		<path fill="#1C4461" d="M405.258,133.158h14.174v10.311c4.571-6.444,11.013-11.6,21.092-11.6c14.523,0,28.7,11.479,28.7,32.103
			v0.232c0,20.501-14.061,32.099-28.7,32.099c-10.313,0-16.757-5.153-21.092-10.893v32.48h-14.174V133.158z M454.814,164.204v-0.232
			c0-11.951-8.087-19.802-17.691-19.802c-9.608,0-18.043,7.971-18.043,19.802v0.232c0,11.83,8.435,19.799,18.043,19.799
			C446.847,184.003,454.814,176.393,454.814,164.204z"/>
	</g>
</g>
<polygon fill="#1E4561" points="25.239,49.604 51.538,73.326 112.989,1.844 51.538,60.107 "/>
<g>
	<g>
		<polygon fill="#F16724" points="51.748,74.668 25.175,87.991 1,100.115 11.802,122.843 36.136,109.989 39.678,108.118 
			99.839,76.346 113.134,43.883 		"/>
		<polygon fill="#F16724" points="28.294,157.535 35.412,172.511 60.648,159.18 67.365,155.632 74.563,138.063 54.362,146.564 		"/>
		<polygon fill="#F16724" points="37.682,113.653 12.478,124.259 19.63,139.309 30.501,133.565 44.264,126.299 89.071,102.633 
			94.32,89.821 37.914,113.557 		"/>
		<polygon fill="#F16724" points="35.878,173.489 46.842,195.419 49.86,195.419 63.537,164.982 65.088,161.2 62.249,162.394 		"/>
		<polygon fill="#F16724" points="28.044,157.008 77.501,130.89 84.729,113.251 20.157,140.421 		"/>
	</g>
	<g>
		<polygon fill="#F9A41D" points="54.362,146.564 28.294,157.535 35.412,172.511 60.648,159.18 		"/>
		<polygon fill="#F9A41D" points="37.914,113.557 37.682,113.653 30.501,133.565 44.264,126.299 		"/>
		<polygon fill="#F9A41D" points="62.249,162.394 35.878,173.489 46.842,195.419 49.86,195.419 63.537,164.982 		"/>
		<polygon fill="#F9A41D" points="45.903,129.587 29.436,136.519 24.631,149.829 28.044,157.008 52.999,143.83 		"/>
	</g>
	<polygon fill="#D94927" points="52.101,74.533 40.03,107.981 36.489,109.853 25.528,87.854 	"/>
</g>
</svg>
