<?xml version="1.0" encoding="utf-8"?>
<!-- Generator: Adobe Illustrator 16.0.0, SVG Export Plug-In . SVG Version: 6.00 Build 0)  -->
<!DOCTYPE svg PUBLIC "-//W3C//DTD SVG 1.1//EN" "http://www.w3.org/Graphics/SVG/1.1/DTD/svg11.dtd">
<svg version="1.1" id="Layer_1" xmlns="http://www.w3.org/2000/svg" xmlns:xlink="http://www.w3.org/1999/xlink" x="0px" y="0px"
	 width="308.108px" height="145.946px" viewBox="0 0 308.108 145.946" enable-background="new 0 0 308.108 145.946"
	 xml:space="preserve">
<polygon fill="#FFFFFF" points="19.938,33.712 36.995,49.097 76.852,2.735 36.995,40.523 "/>
<g>
	<path fill="#FFFFFF" d="M65.915,75.018h9.979l16.227,25.217l26.205-30.931v59.042h-9.369V96.107L92.12,115.242h-0.307
		L75.131,90.256v38.09h-9.217V75.018z"/>
	<path fill="#FFFFFF" d="M120.114,108.389v-0.156c0-11.502,8.152-20.949,19.654-20.949c12.797,0,19.273,10.057,19.273,21.635
		c0,0.84-0.076,1.678-0.154,2.592h-29.555c0.988,6.549,5.637,10.209,11.578,10.209c4.494,0,7.695-1.678,10.893-4.803l5.408,4.803
		c-3.809,4.566-9.064,7.541-16.453,7.541C129.104,129.26,120.114,120.805,120.114,108.389z M149.901,105.414
		c-0.609-5.941-4.115-10.588-10.209-10.588c-5.637,0-9.6,4.342-10.438,10.588H149.901z"/>
	<path fill="#FFFFFF" d="M160.717,88.121h9.219v9.068c2.512-6.02,7.16-10.135,14.246-9.828v9.75h-0.531
		c-8.078,0-13.715,5.256-13.715,15.922v15.313h-9.219V88.121z"/>
	<path fill="#FFFFFF" d="M185.758,73.189h9.904v8.762h-9.904V73.189z M186.139,88.121h9.221v40.225h-9.221V88.121z"/>
	<path fill="#FFFFFF" d="M202.725,117.225v-21.18h-5.104v-7.924h5.104l9.219-11.045v11.045h10.818v7.924h-10.818v19.73
		c0,3.58,1.828,5.029,4.953,5.029c2.055,0,3.885-0.459,5.711-1.371v7.539c-2.283,1.297-4.799,2.059-8.303,2.059
		C207.526,129.031,202.725,126.059,202.725,117.225z"/>
	<path fill="#FFFFFF" d="M221.163,108.463v-0.154c0-11.5,9.143-21.025,21.482-21.025c12.342,0,21.406,9.371,21.406,20.875v0.15
		c0,11.428-9.141,20.951-21.559,20.951C230.227,129.26,221.163,119.891,221.163,108.463z M254.833,108.463v-0.154
		c0-7.084-5.104-12.951-12.34-12.951c-7.389,0-12.113,5.791-12.113,12.801v0.15c0,7.008,5.105,12.875,12.266,12.875
		C250.11,121.184,254.833,115.395,254.833,108.463z"/>
	<path fill="#FFFFFF" d="M264.774,88.121h9.217v6.705c2.973-4.189,7.16-7.543,13.715-7.543c9.443,0,18.662,7.465,18.662,20.875v0.15
		c0,13.33-9.143,20.873-18.662,20.873c-6.705,0-10.896-3.352-13.715-7.082v21.119h-9.217V88.121z M296.999,108.309v-0.15
		c0-7.771-5.26-12.877-11.504-12.877c-6.248,0-11.732,5.184-11.732,12.877v0.15c0,7.693,5.484,12.875,11.732,12.875
		C291.817,121.184,296.999,116.234,296.999,108.309z"/>
</g>
<g>
	<g>
		<polygon fill="#FFFFFF" points="37.131,49.968 19.897,58.609 4.217,66.472 11.223,81.213 27.006,72.876 29.303,71.664 
			68.323,51.056 76.946,30 		"/>
		<polygon fill="#FFFFFF" points="21.92,103.715 26.536,113.428 42.905,104.781 47.26,102.48 51.928,91.084 38.827,96.6 		"/>
		<polygon fill="#FFFFFF" points="28.008,75.254 11.661,82.133 16.299,91.893 23.35,88.168 32.278,83.455 61.338,68.105 
			64.745,59.795 28.159,75.189 		"/>
		<polygon fill="#FFFFFF" points="26.838,114.061 33.95,128.285 35.907,128.285 44.778,108.545 45.784,106.092 43.942,106.865 		"/>
		<polygon fill="#FFFFFF" points="21.756,103.371 53.834,86.432 58.522,74.992 16.643,92.615 		"/>
	</g>
</g>
</svg>
